<svg width="16" height="16" viewBox="0 0 16 16" fill="none" xmlns="http://www.w3.org/2000/svg">
<g clip-path="url(#clip0_446_2727)">
<path d="M15.4895 9.75429C15.4781 9.78095 15.4664 9.80732 15.4555 9.83427C15.3457 10.1085 15.075 10.2664 14.8028 10.2148C14.5148 10.1601 14.3188 9.92539 14.3185 9.62128C14.317 8.15175 14.3176 6.68222 14.3176 5.21269C14.3176 5.02314 14.3176 4.83388 14.3176 4.63584C10.0965 4.63584 5.88657 4.63584 1.66138 4.63584C1.66138 4.69238 1.66138 4.74453 1.66138 4.79668C1.66138 7.35986 1.66108 9.92275 1.66138 12.4859C1.66138 13.2465 2.15503 13.7387 2.91763 13.739C6.30083 13.7393 9.68374 13.7393 13.0669 13.739C13.7991 13.739 14.2807 13.2813 14.3176 12.553C14.3323 12.2656 14.5253 12.0412 14.8028 11.9891C15.0703 11.9387 15.3404 12.0916 15.4502 12.3561C15.4631 12.3875 15.4763 12.4188 15.4892 12.4499C15.4892 12.5768 15.4892 12.7039 15.4892 12.8308C15.4801 12.8577 15.4669 12.8838 15.4628 12.9113C15.2929 14.0483 14.3211 14.9067 13.1736 14.9085C9.71743 14.9135 6.26128 14.9132 2.80542 14.9088C1.76216 14.9073 0.847803 14.1913 0.573877 13.1832C0.542236 13.0666 0.517627 12.9482 0.489502 12.8308C0.489502 9.42236 0.489502 6.01396 0.489502 2.60556C0.499756 2.57421 0.513232 2.54316 0.519678 2.51093C0.686963 1.68769 1.39243 1.08476 2.21831 1.08388C6.06587 1.08007 9.91343 1.07978 13.761 1.08505C14.3214 1.08593 14.7744 1.3332 15.1248 1.77119C15.3219 2.01728 15.411 2.30878 15.4892 2.60556C15.4895 4.98828 15.4895 7.37128 15.4895 9.75429ZM9.67231 2.254C9.61899 2.254 9.56099 2.254 9.50298 2.254C7.12114 2.254 4.7396 2.254 2.35776 2.254C2.31382 2.254 2.26987 2.25283 2.22593 2.25488C1.94556 2.26748 1.70034 2.46933 1.6728 2.74736C1.64995 2.97763 1.66812 3.21171 1.66812 3.44755C4.35054 3.44755 7.02212 3.44755 9.68315 3.44755C9.65532 3.24921 9.60874 3.05732 9.60698 2.86513C9.60493 2.66767 9.64712 2.47021 9.67231 2.254ZM11.3642 2.25429C11.0419 2.25136 10.7759 2.5124 10.773 2.83378C10.7701 3.15576 11.0311 3.42236 11.3525 3.42529C11.6742 3.42822 11.9411 3.16689 11.944 2.8455C11.9469 2.52353 11.6859 2.25722 11.3642 2.25429ZM13.7085 3.42529C14.0296 3.42207 14.291 3.15517 14.2877 2.83349C14.2845 2.5121 14.0179 2.25107 13.6959 2.25429C13.3746 2.25752 13.1138 2.52353 13.117 2.84609C13.12 3.16748 13.3866 3.42851 13.7085 3.42529Z" fill="#191919"/>
<path d="M2.91992 9.2248C2.93223 8.80263 3.09189 8.44814 3.41563 8.17392C3.88467 7.77636 4.35635 7.38202 4.82832 6.98827C5.11133 6.75214 5.47139 6.77528 5.6876 7.03925C5.90029 7.29911 5.85898 7.65126 5.58389 7.88388C5.13652 8.26181 4.68652 8.63622 4.23828 9.01298C4.03877 9.18056 4.03965 9.27519 4.24092 9.44452C4.69297 9.82421 5.14678 10.2018 5.59766 10.5833C5.78428 10.7412 5.8625 10.9428 5.80127 11.1851C5.7418 11.4203 5.58594 11.5633 5.35215 11.6166C5.1752 11.6567 5.00937 11.6154 4.87109 11.5003C4.36484 11.079 3.85625 10.66 3.35996 10.227C3.06113 9.96689 2.93018 9.61943 2.91992 9.2248Z" fill="#191919"/>
<path d="M13.0274 9.28863C13.0162 9.61118 12.8976 9.94663 12.6204 10.1957C12.1233 10.6421 11.6138 11.0754 11.1002 11.5029C10.8491 11.7118 10.4888 11.6596 10.289 11.4115C10.0874 11.161 10.1158 10.8141 10.3657 10.597C10.8043 10.2165 11.2479 9.84175 11.6885 9.46382C11.9182 9.26695 11.9185 9.18638 11.6908 8.99097C11.2613 8.62242 10.831 8.25474 10.4012 7.88648C10.1191 7.64478 10.0766 7.29527 10.2966 7.03247C10.5149 6.77173 10.8752 6.75298 11.1565 6.99234C11.6135 7.38111 12.0696 7.77134 12.5243 8.16304C12.8595 8.45191 13.0315 8.82427 13.0274 9.28863Z" fill="#191919"/>
<path d="M7.3452 12.1265C6.9576 12.1235 6.67899 11.7623 6.78563 11.3791C7.07918 10.3232 7.38123 9.27002 7.68035 8.21562C7.82244 7.71435 7.96219 7.21221 8.10926 6.71211C8.20155 6.39834 8.4951 6.21699 8.79422 6.27705C9.09305 6.33711 9.30281 6.60488 9.27498 6.90107C9.26678 6.9875 9.24041 7.07275 9.21668 7.15684C8.79657 8.6375 8.37586 10.1179 7.95516 11.5982C7.85526 11.9478 7.64578 12.1288 7.3452 12.1265Z" fill="#191919"/>
</g>
<defs>
<clipPath id="clip0_446_2727">
<rect width="15" height="15" fill="white" transform="translate(0.5 0.5)"/>
</clipPath>
</defs>
</svg>
