<?xml version="1.0" standalone="no"?>
<!DOCTYPE svg PUBLIC "-//W3C//DTD SVG 20010904//EN"
 "http://www.w3.org/TR/2001/REC-SVG-20010904/DTD/svg10.dtd">
<svg version="1.0" xmlns="http://www.w3.org/2000/svg"
 width="527.000000pt" height="527.000000pt" viewBox="0 0 527.000000 527.000000"
 preserveAspectRatio="xMidYMid meet">
<metadata>
Created by potrace 1.14, written by Peter Selinger 2001-2017
</metadata>
<g transform="translate(0.000000,527.000000) scale(0.100000,-0.100000)"
fill="#000000" stroke="none">
<path d="M1291 4181 c0 -8 -4 -12 -7 -8 -4 3 -26 -7 -50 -23 -23 -17 -47 -30
-52 -30 -5 0 -17 -9 -27 -20 -10 -11 -22 -17 -26 -14 -5 3 -9 0 -9 -6 0 -6 -4
-8 -10 -5 -5 3 -10 1 -10 -4 0 -6 -7 -11 -15 -11 -8 0 -15 -4 -15 -9 0 -5 -13
-14 -30 -21 -16 -7 -30 -16 -30 -21 0 -5 -6 -9 -14 -9 -8 0 -21 -6 -28 -14 -8
-7 -24 -17 -36 -20 -12 -4 -22 -12 -22 -17 0 -6 -4 -7 -10 -4 -5 3 -10 1 -10
-4 0 -6 -6 -11 -14 -11 -8 0 -16 -7 -20 -15 -3 -8 -13 -15 -22 -15 -9 0 -27
-9 -41 -20 -14 -11 -32 -20 -40 -20 -8 0 -12 -4 -9 -9 5 -8 -29 -25 -46 -22
-5 1 -8 -4 -8 -10 0 -5 -13 -15 -30 -20 -16 -6 -30 -15 -30 -20 0 -5 -6 -9
-14 -9 -8 0 -17 -8 -20 -17 -6 -14 -9 -15 -15 -4 -7 10 -10 9 -14 -3 -4 -9
-13 -16 -22 -16 -8 0 -15 -4 -15 -9 0 -5 -13 -14 -30 -20 -16 -5 -30 -15 -30
-20 0 -6 -9 -11 -19 -11 -11 0 -21 -4 -23 -8 -4 -11 -81 -57 -90 -54 -5 1 -8
-2 -8 -7 0 -5 -12 -16 -27 -23 -44 -22 -76 -42 -91 -55 -7 -7 -19 -13 -27 -13
-7 0 -16 -7 -19 -16 -4 -9 -9 -14 -13 -10 -3 3 -15 -1 -25 -11 -10 -9 -18 -13
-18 -9 0 4 -6 2 -12 -4 -60 -50 -68 -54 -89 -52 -4 1 -6 -352 -5 -785 l1 -786
50 -29 c28 -16 62 -34 78 -40 15 -7 27 -16 27 -20 0 -4 7 -8 15 -8 8 0 15 -5
15 -11 0 -5 5 -7 10 -4 6 3 13 -1 16 -9 3 -9 14 -16 24 -16 10 0 23 -7 30 -15
7 -8 19 -15 26 -15 8 0 14 -4 14 -10 0 -5 11 -12 24 -16 14 -3 27 -12 30 -20
3 -8 15 -14 26 -14 11 0 20 -5 20 -11 0 -5 4 -7 10 -4 5 3 10 1 10 -4 0 -6 7
-11 15 -11 8 0 15 -4 15 -10 0 -5 6 -10 14 -10 7 0 19 -7 26 -15 7 -8 16 -13
20 -10 5 3 10 2 12 -2 6 -14 67 -53 82 -53 8 0 16 -3 18 -8 4 -9 177 -112 189
-112 5 0 9 -5 9 -11 0 -5 4 -7 10 -4 5 3 10 1 10 -4 0 -6 18 -19 40 -28 22
-10 40 -21 40 -25 0 -5 5 -8 11 -8 6 0 30 -13 54 -29 24 -16 53 -32 64 -36 11
-3 28 -13 36 -21 8 -8 24 -16 34 -17 11 0 18 -4 15 -8 -2 -4 20 -18 50 -32 30
-14 57 -31 61 -36 15 -25 112 -1 137 34 4 5 10 6 14 3 3 -4 18 4 32 17 14 13
29 22 34 19 4 -3 8 -1 8 4 0 5 18 17 40 28 22 10 40 22 40 27 0 4 6 7 14 7 8
0 21 6 28 13 7 7 38 26 68 43 30 16 61 35 68 41 7 7 20 13 28 13 8 0 17 7 20
15 4 8 15 15 25 15 10 0 19 5 19 10 0 6 6 10 13 10 7 0 23 9 35 20 12 12 22
18 22 14 0 -3 11 1 24 10 14 8 42 25 63 37 79 44 128 73 133 79 3 3 12 6 20 8
8 2 17 8 18 13 2 5 8 7 13 3 5 -3 9 -1 9 5 0 10 29 23 43 18 5 -1 13 6 18 16
6 9 19 17 29 17 11 0 20 5 20 11 0 5 14 15 30 20 17 6 30 15 30 21 0 5 4 7 8
4 5 -3 19 4 30 15 12 10 23 19 24 18 8 -5 48 14 48 22 0 6 5 7 10 4 6 -3 10
-1 10 4 0 6 9 11 20 11 11 0 20 4 20 9 0 5 16 15 35 22 19 7 35 16 35 20 0 4
11 10 25 13 14 4 23 11 20 17 -4 5 -3 8 2 7 4 -1 18 2 31 6 l23 8 -23 20 c-13
11 -35 27 -50 36 -16 9 -28 20 -28 24 0 4 -4 8 -9 8 -14 0 -91 52 -91 62 0 4
-9 8 -19 8 -10 0 -21 7 -25 15 -3 8 -14 15 -23 15 -10 0 -26 8 -35 18 -26 27
-46 42 -57 42 -5 0 -23 11 -39 25 -16 13 -32 22 -36 18 -3 -3 -6 -1 -6 5 0 7
-7 12 -15 12 -9 0 -18 7 -21 15 -4 8 -10 12 -15 9 -5 -3 -9 -2 -9 3 0 4 -18
17 -40 27 -22 10 -37 23 -34 27 3 5 -2 6 -10 3 -9 -3 -16 -2 -16 4 0 5 -8 12
-17 15 -22 7 -72 37 -91 55 -7 6 -18 12 -23 12 -6 0 -34 15 -64 34 -29 19 -56
32 -59 29 -3 -3 -8 2 -12 11 -3 9 -14 16 -24 16 -10 0 -26 7 -34 16 -9 8 -16
12 -16 7 0 -4 -4 -3 -8 2 -4 6 -43 28 -87 49 -44 22 -83 44 -87 50 -4 6 -8 7
-8 3 0 -4 -10 -2 -22 5 -13 7 -26 11 -30 10 -5 -1 -8 2 -8 7 0 8 -22 18 -60
26 -8 2 -16 9 -18 14 -2 6 -12 11 -23 11 -10 0 -19 4 -19 10 0 5 -6 7 -14 4
-18 -7 -21 17 -21 151 0 62 -4 113 -10 117 -6 5 -5 8 2 8 9 0 10 7 3 24 -6 17
-5 26 3 29 9 3 9 8 -1 19 -9 11 -10 18 -2 23 6 3 7 11 3 18 -7 12 -9 44 -13
204 -1 76 -6 111 -13 106 -6 -4 -7 -1 -1 8 12 18 12 99 0 99 -5 0 -3 6 3 13 6
8 8 17 5 20 -4 3 -7 43 -8 89 -1 46 -5 88 -8 93 -4 6 -3 17 1 23 4 7 5 33 1
57 -4 26 -3 48 4 55 6 6 6 10 1 10 -6 0 -10 61 -10 148 0 123 -9 261 -14 213z"/>
<path d="M3842 4173 c-7 -10 -10 -12 -6 -4 4 8 -8 3 -28 -12 -19 -15 -40 -27
-45 -27 -6 0 -14 -7 -17 -16 -3 -8 -10 -12 -16 -9 -5 3 -10 1 -10 -4 0 -6 -6
-11 -14 -11 -8 0 -17 -7 -20 -16 -3 -8 -10 -13 -15 -9 -6 3 -14 -3 -20 -12 -5
-10 -13 -15 -16 -11 -4 4 -19 -4 -33 -18 -15 -13 -32 -24 -39 -24 -7 0 -17 -8
-22 -17 -6 -10 -11 -15 -11 -10 0 7 -49 -20 -60 -34 -3 -3 -27 -19 -53 -35
-27 -16 -61 -37 -75 -46 -15 -10 -37 -23 -49 -29 -13 -7 -23 -16 -23 -21 0 -4
-5 -8 -10 -8 -10 0 -122 -68 -147 -90 -7 -5 -17 -10 -23 -10 -5 0 -10 -3 -10
-8 0 -4 -20 -18 -45 -31 -25 -13 -45 -28 -45 -33 0 -6 -7 -8 -15 -4 -8 3 -15
1 -15 -4 0 -5 -28 -25 -62 -46 -35 -21 -65 -41 -68 -45 -3 -3 -15 -9 -27 -13
-13 -4 -23 -11 -23 -17 0 -5 -15 -15 -33 -22 -18 -8 -41 -23 -52 -33 -10 -10
-21 -20 -24 -20 -31 -8 -50 -18 -45 -25 3 -5 -2 -9 -11 -9 -9 0 -15 -5 -13
-11 2 -6 6 -9 8 -7 3 2 17 -7 30 -20 14 -12 36 -26 50 -29 14 -3 28 -11 32
-17 4 -6 11 -12 15 -12 28 -5 52 -18 47 -25 -3 -5 4 -9 14 -9 11 0 25 -7 32
-15 7 -8 16 -12 21 -9 5 3 9 0 9 -5 0 -6 7 -11 15 -11 8 0 15 -5 15 -11 0 -5
5 -7 10 -4 6 3 10 1 10 -4 0 -6 5 -11 12 -11 6 0 20 -8 31 -17 13 -11 17 -12
12 -4 -5 9 2 7 18 -5 15 -10 27 -23 27 -27 0 -5 4 -6 9 -2 5 3 17 -2 25 -11 9
-8 16 -13 16 -9 0 3 17 -5 37 -19 20 -14 40 -23 45 -20 4 3 8 2 8 -3 0 -4 21
-19 48 -33 26 -13 49 -27 52 -30 3 -3 19 -12 35 -21 78 -40 121 -65 127 -74 5
-7 8 -7 8 0 0 6 3 6 8 0 4 -6 28 -22 55 -35 26 -14 47 -29 47 -33 0 -5 4 -6 9
-3 5 3 20 -3 34 -14 14 -11 30 -20 35 -20 6 0 17 -6 24 -13 7 -6 34 -23 61
-36 26 -13 47 -28 47 -33 0 -5 5 -6 11 -3 5 4 18 0 27 -8 29 -25 103 -59 118
-53 11 4 14 -8 15 -57 1 -34 1 -68 0 -75 -1 -8 4 -21 11 -30 8 -10 8 -13 1 -9
-8 5 -11 -2 -9 -23 1 -16 5 -32 9 -36 3 -4 2 -16 -4 -26 -8 -14 -8 -23 0 -31
7 -7 7 -16 0 -29 -7 -13 -6 -18 2 -18 8 0 8 -4 -1 -15 -7 -8 -9 -15 -4 -15 5
0 9 -44 9 -98 0 -53 3 -103 8 -109 6 -9 5 -13 -2 -13 -9 0 -9 -5 0 -21 6 -13
7 -19 1 -15 -11 7 -11 -12 1 -31 5 -7 4 -13 -2 -13 -7 0 -7 -8 -2 -23 6 -14 5
-30 -1 -41 -6 -10 -6 -16 -1 -13 9 5 11 -48 16 -328 1 -55 7 -103 12 -107 6
-5 6 -8 -2 -8 -7 0 -10 -10 -7 -25 2 -14 5 -77 7 -140 1 -63 6 -115 11 -115 5
0 4 -6 -1 -12 -11 -15 -11 -28 1 -47 6 -10 5 -12 -2 -7 -8 4 -10 2 -6 -8 6
-16 29 -12 57 12 9 8 17 11 17 6 0 -5 4 -4 8 1 9 13 42 34 65 41 9 4 17 11 17
16 0 5 5 6 10 3 6 -3 10 -2 10 3 0 5 8 12 18 15 9 4 35 18 57 32 22 13 47 28
55 32 8 3 17 9 20 12 3 3 19 13 35 22 43 23 79 43 85 49 8 8 43 29 70 42 14 7
28 17 32 23 4 5 10 7 13 3 3 -3 18 5 32 18 14 13 32 24 39 24 8 0 14 4 14 8 0
4 16 14 35 21 19 7 35 17 35 22 0 5 7 9 15 9 8 0 15 5 15 11 0 6 6 9 14 6 8
-3 17 1 20 9 3 8 12 14 19 14 8 0 20 7 27 15 7 8 21 15 32 15 10 0 16 5 13 10
-3 6 1 10 9 10 8 0 21 6 28 14 8 7 24 17 36 20 12 4 22 12 22 17 0 6 4 8 9 5
5 -3 14 1 21 9 7 8 16 12 21 9 5 -3 9 -1 9 4 0 5 18 17 40 28 22 10 40 22 40
25 0 3 18 14 40 24 22 10 40 22 40 27 0 5 5 6 10 3 6 -3 10 -2 10 3 0 4 16 14
35 22 19 8 35 17 35 22 0 4 7 8 16 8 14 0 16 36 13 373 -2 219 -8 375 -13 379
-6 4 -5 12 2 21 7 7 9 17 6 20 -4 3 -8 62 -9 130 -1 68 -5 129 -9 135 -4 7 -1
12 6 12 9 0 9 3 -2 10 -10 6 -11 10 -3 10 9 0 10 7 3 26 -13 32 -13 37 1 28 8
-5 8 -1 0 14 -14 27 -14 35 1 26 7 -5 8 -3 2 7 -4 8 -10 57 -11 109 -2 52 -5
118 -6 145 -2 28 1 55 6 62 5 7 -5 17 -32 29 -22 9 -37 22 -34 27 3 6 2 8 -3
5 -5 -3 -22 3 -39 13 -16 11 -38 22 -47 25 -10 4 -18 10 -18 15 0 5 -4 9 -10
9 -5 0 -37 18 -71 40 -34 22 -66 40 -71 40 -5 0 -18 9 -30 20 -12 10 -24 17
-28 15 -5 -3 -10 2 -14 10 -3 8 -12 15 -19 15 -8 0 -24 9 -37 20 -13 11 -29
20 -37 20 -7 0 -13 4 -13 9 0 5 -8 11 -17 14 -10 4 -36 18 -58 32 -22 14 -52
31 -67 37 -16 7 -28 16 -28 20 0 4 -7 8 -16 8 -8 0 -12 5 -9 10 4 6 3 9 -2 8
-12 -4 -73 25 -73 34 0 5 -7 8 -15 8 -9 0 -18 6 -21 14 -3 8 -19 18 -35 21
-17 4 -26 11 -22 18 4 6 1 8 -9 5 -8 -4 -21 2 -28 12 -8 10 -20 16 -29 12 -9
-3 -13 -1 -9 3 8 8 -8 19 -62 47 -14 7 -27 15 -30 18 -9 10 -65 41 -82 47 -10
3 -18 10 -18 15 0 6 -7 7 -16 4 -8 -3 -12 -2 -9 3 3 5 -5 13 -17 17 -13 4 -28
14 -35 23 -7 9 -13 12 -13 8 0 -5 -13 1 -29 12 -16 12 -32 21 -36 21 -3 0 -13
7 -21 15 -21 21 -76 19 -92 -2z"/>
</g>
</svg>
