<svg width="24" height="24" viewBox="0 0 24 24" fill="none" xmlns="http://www.w3.org/2000/svg">
<g clip-path="url(#clip0_446_2817)">
<path d="M11.7908 24.0563C10.709 23.6944 9.63148 23.32 8.54457 22.9731C7.43315 22.6188 6.36635 22.1822 5.4541 21.4339C3.64027 19.9474 2.65891 18.0519 2.65703 15.6852C2.65326 12.0569 2.66017 8.42864 2.65137 4.79974C2.65012 4.30152 2.85493 3.97985 3.28719 3.74676C4.09954 3.30822 4.90938 2.86278 5.69787 2.38278C6.43923 1.93105 7.02038 1.30906 7.42938 0.53503C7.63169 0.151784 7.94834 -0.0260172 8.38436 -0.025389C10.7825 -0.0209911 13.1806 -0.0216187 15.5787 -0.0247601C15.9714 -0.0253884 16.2981 0.10592 16.4809 0.45838C17.0306 1.51702 17.9033 2.23199 18.9205 2.79744C19.5155 3.12854 20.1129 3.45524 20.7155 3.77252C21.1075 3.97859 21.306 4.28267 21.3054 4.73189C21.3016 7.92163 21.3041 11.1107 21.3029 14.3005C21.3029 14.7949 21.061 15.1373 20.6369 15.2661C20.2474 15.3842 19.8114 15.2567 19.6091 14.9024C19.4953 14.7032 19.4313 14.4469 19.4306 14.2157C19.4187 11.3319 19.4193 8.44812 19.4294 5.56372C19.43 5.30424 19.3609 5.16728 19.1222 5.04414C18.2313 4.5855 17.346 4.11367 16.5645 3.47471C16.0512 3.05503 15.5994 2.57943 15.2388 2.02278C15.1552 1.89335 15.0648 1.85377 14.9159 1.8544C12.9569 1.85943 10.9973 1.85629 9.03839 1.86257C8.94603 1.86257 8.81347 1.90843 8.7676 1.97817C8.07211 3.03304 7.11148 3.78508 6.02959 4.39953C5.58729 4.65084 5.14059 4.89461 4.69074 5.13147C4.57828 5.19116 4.53682 5.25712 4.53682 5.38466C4.54122 8.89545 4.49347 12.4075 4.55944 15.917C4.60216 18.192 5.85619 19.7652 7.87169 20.7019C8.78142 21.1248 9.77033 21.3761 10.724 21.7047C10.9458 21.7813 11.1783 21.8341 11.3894 21.9327C11.7908 22.12 12.1659 22.0873 12.5787 21.9377C13.5569 21.584 14.5534 21.2831 15.536 20.9419C16.8447 20.4877 17.8882 19.6873 18.639 18.5143C18.8746 18.1461 19.2422 17.9834 19.6179 18.0594C20.0187 18.1405 20.3021 18.4251 20.3787 18.8265C20.4302 19.0973 20.346 19.3354 20.2009 19.5597C19.2063 21.0978 17.8285 22.1457 16.1027 22.735C14.8078 23.1773 13.5041 23.5958 12.2049 24.0261C12.1911 24.0305 12.1804 24.045 12.1684 24.0544C12.0415 24.0563 11.9159 24.0563 11.7908 24.0563Z" fill="#121212"/>
<path d="M6.34255 15.8654C6.32622 15.2861 6.70318 14.8557 7.23721 14.8388C7.7813 14.8212 8.18213 15.2195 8.21857 15.79C8.27386 16.6557 8.8236 17.1313 9.56936 17.4222C10.028 17.6013 10.5023 17.7383 10.9698 17.8947C11.0068 17.9073 11.0464 17.9142 11.081 17.9318C11.6841 18.2409 12.276 18.2088 12.8929 17.9374C13.3346 17.7427 13.8096 17.6227 14.2701 17.47C14.7105 17.3236 15.0956 17.0943 15.3884 16.7267C15.6039 16.456 15.7289 16.1506 15.7428 15.8C15.766 15.2233 16.1681 14.8262 16.7109 14.8382C17.2481 14.8501 17.6471 15.2792 17.6188 15.8541C17.5522 17.2262 16.8466 18.2057 15.6906 18.8823C15.396 19.0545 15.0699 19.1808 14.7463 19.2926C13.9635 19.564 13.1719 19.8116 12.3872 20.0767C12.1157 20.1684 11.8569 20.1728 11.5849 20.0786C10.5878 19.7324 9.56056 19.456 8.59491 19.0382C7.34716 18.4978 6.56119 17.5297 6.35889 16.1456C6.35323 16.1066 6.34632 16.0683 6.34444 16.0294C6.34067 15.9753 6.34255 15.92 6.34255 15.8654Z" fill="#121212"/>
<path d="M11.9856 3.68097C12.5737 3.68097 13.1611 3.68286 13.7492 3.68035C14.0313 3.67909 14.2726 3.77207 14.4635 3.9794C15.2194 4.80056 16.1109 5.44516 17.0728 6.00056C17.5063 6.25124 17.696 6.63951 17.6037 7.05228C17.4617 7.68621 16.7812 7.99406 16.2045 7.66862C15.2533 7.13207 14.3549 6.51888 13.5758 5.74673C13.4357 5.60789 13.2956 5.55511 13.1008 5.55762C12.3331 5.56768 11.5647 5.55637 10.797 5.56768C10.6788 5.56956 10.5318 5.62045 10.4489 5.70087C9.65412 6.46799 8.75883 7.09564 7.80323 7.64223C7.29119 7.93501 6.72952 7.79867 6.45747 7.32244C6.19234 6.85689 6.35506 6.31029 6.85894 6.01878C7.83402 5.45459 8.73999 4.8037 9.50522 3.96935C9.69622 3.76139 9.94187 3.67783 10.2233 3.67972C10.8101 3.68349 11.3982 3.68097 11.9856 3.68097Z" fill="#121212"/>
<path d="M11.5773 10.1777C11.8204 10.2845 12.1213 10.2022 12.4273 10.1872C13.0625 10.1557 13.5048 10.7784 13.3308 11.3953C13.3019 11.4977 13.3012 11.6202 13.3264 11.7239C13.4162 12.0871 13.359 12.4119 13.0914 12.6783C12.825 12.9434 12.5046 13.0119 12.1389 12.9132C12.0353 12.8856 11.9115 12.8881 11.8066 12.9157C11.4497 13.01 11.1362 12.9421 10.8736 12.6871C10.6028 12.4238 10.5412 12.1002 10.6248 11.7359C10.6506 11.624 10.6518 11.4952 10.6223 11.3853C10.4583 10.7765 10.8931 10.1834 11.5773 10.1777Z" fill="#121212"/>
<path d="M7.67573 10.1777C7.92013 10.299 8.2217 10.1966 8.52704 10.1853C9.16223 10.162 9.60013 10.7872 9.41919 11.4022C9.38966 11.5034 9.39531 11.6265 9.41982 11.7308C9.50526 12.094 9.44935 12.4188 9.17856 12.6839C8.9172 12.9396 8.60432 13.0087 8.2462 12.917C8.13437 12.8887 8.00306 12.8894 7.89123 12.9176C7.53312 13.0087 7.21961 12.939 6.96076 12.6808C6.69437 12.4156 6.62777 12.0927 6.7195 11.7283C6.74526 11.6246 6.74715 11.5021 6.71887 11.3997C6.54421 10.7821 6.98212 10.1796 7.67573 10.1777Z" fill="#121212"/>
<path d="M15.4887 10.1777C15.7325 10.2946 16.0347 10.1985 16.3394 10.1859C16.984 10.1601 17.4175 10.7897 17.2284 11.4205C17.202 11.5084 17.2027 11.6165 17.2278 11.7051C17.3327 12.077 17.2693 12.4075 16.996 12.6801C16.7296 12.9453 16.4073 13.0125 16.0429 12.9113C15.9461 12.8843 15.8299 12.8837 15.7338 12.9101C15.37 13.0112 15.0477 12.9478 14.7794 12.6833C14.5024 12.4112 14.4458 12.0801 14.5445 11.7088C14.5702 11.6133 14.5664 11.4971 14.5382 11.4022C14.356 10.7897 14.7945 10.1809 15.4887 10.1777Z" fill="#121212"/>
</g>
<defs>
<clipPath id="clip0_446_2817">
<rect width="24" height="24" fill="white"/>
</clipPath>
</defs>
</svg>
