<svg width="24" height="24" viewBox="0 0 24 24" fill="none" xmlns="http://www.w3.org/2000/svg">
<g clip-path="url(#clip0_446_2800)">
<path d="M-0.065918 0.728992C0.123192 0.164803 0.522773 -0.0462968 1.10644 -0.0293335C1.92822 -0.00545913 2.75126 -0.0243069 3.57366 -0.0230504C4.1856 -0.0217938 4.60089 0.364594 4.59712 0.926269C4.59335 1.47412 4.17806 1.85548 3.57869 1.858C3.01513 1.85988 2.45094 1.85988 1.88738 1.86177C1.87293 1.86177 1.85911 1.87056 1.81639 1.88438C1.81639 2.31098 1.81639 2.74637 1.81639 3.18177C1.81639 3.34637 1.81827 3.51035 1.81576 3.67496C1.80885 4.15559 1.50476 4.53883 1.06372 4.62554C0.613245 4.71412 0.192931 4.48417 -0.00120553 4.04564C-0.0194254 4.0048 -0.0439283 3.96648 -0.0652896 3.92752C-0.0659178 2.86135 -0.065918 1.79517 -0.065918 0.728992Z" fill="#121212"/>
<path d="M-0.065918 20.1044C-0.0376457 20.051 -0.00685999 19.9982 0.0188992 19.9436C0.209266 19.5365 0.62958 19.3203 1.06434 19.4064C1.4878 19.49 1.80571 19.8638 1.81262 20.3118C1.82141 20.837 1.81513 21.3622 1.81513 21.8868C1.81513 21.9717 1.81513 22.0571 1.81513 22.1733C2.15502 22.1733 2.4811 22.1733 2.80717 22.1733C3.07356 22.1733 3.34057 22.1721 3.60696 22.174C4.10832 22.1777 4.49408 22.4755 4.5833 22.9241C4.67377 23.3821 4.43817 23.8024 3.98141 23.9991C3.94749 24.0135 3.91733 24.0362 3.88529 24.0544C2.81911 24.0544 1.75293 24.0544 0.686752 24.0544C0.306648 23.9325 0.0547103 23.6824 -0.065918 23.3017C-0.065918 22.2368 -0.065918 21.1706 -0.065918 20.1044Z" fill="#121212"/>
<path d="M20.067 24.0554C20.0136 24.0271 19.9614 23.9963 19.9068 23.9705C19.4997 23.7795 19.2835 23.3611 19.3683 22.9264C19.4506 22.5035 19.8257 22.1831 20.2718 22.1768C20.8819 22.1687 21.4925 22.1749 22.1371 22.1749C22.1371 22.0882 22.1371 22.0141 22.1371 21.9393C22.1371 21.4066 22.1327 20.8744 22.1384 20.3416C22.1441 19.8001 22.5443 19.3974 23.0682 19.3936C23.6048 19.3898 24.0138 19.7932 24.0169 20.346C24.0226 21.2621 24.022 22.1787 24.0169 23.0947C24.0144 23.6036 23.7191 23.8939 23.2661 24.0554C22.1993 24.0554 21.1332 24.0554 20.067 24.0554Z" fill="#121212"/>
<path d="M-0.065918 11.8277C0.192302 10.9959 0.958794 10.9607 1.65806 11.1529C2.07712 11.2685 2.30078 11.7234 2.2367 12.1676C2.17827 12.5722 1.83021 12.9115 1.41115 12.9479C1.19377 12.9668 0.970731 12.9718 0.754606 12.9448C0.316072 12.8907 0.0716736 12.6011 -0.065918 12.2034C-0.065918 12.0784 -0.065918 11.9527 -0.065918 11.8277Z" fill="#121212"/>
<path d="M11.7884 24.0556C10.9522 23.793 10.9132 23.0095 11.1243 22.3109C11.2481 21.9 11.6904 21.6908 12.1289 21.753C12.5329 21.8108 12.8728 22.1595 12.9092 22.5785C12.9281 22.7959 12.9331 23.0196 12.9061 23.2351C12.8514 23.673 12.5618 23.9174 12.1647 24.0556C12.0391 24.0556 11.9134 24.0556 11.7884 24.0556Z" fill="#121212"/>
<path d="M19.2125 12.9361C19.9501 13.4985 20.4961 14.1921 20.7562 15.0641C20.8957 15.5309 20.9667 16.0285 20.9912 16.5167C21.0289 17.2832 21.0031 18.0522 21.0006 18.8205C20.9987 19.4702 20.6111 19.8591 19.9595 19.861C18.7055 19.8641 17.4508 19.8641 16.1968 19.861C15.5428 19.8591 15.1683 19.4777 15.1671 18.8174C15.1652 17.8926 15.169 16.9678 15.1658 16.043C15.1602 14.3215 13.9979 13.0128 12.2877 12.796C10.6617 12.5906 8.9987 13.8559 8.83912 15.4913C8.75996 16.3037 8.8253 17.1305 8.8253 17.9812C8.94844 17.9812 9.08729 17.9812 9.22614 17.9812C9.91598 17.9812 10.6058 17.9787 11.2957 17.9818C11.8743 17.9843 12.2915 18.3757 12.2959 18.9116C12.2996 19.44 11.8762 19.8584 11.3063 19.8597C8.85231 19.8647 6.39891 19.8641 3.94488 19.8597C3.38949 19.8584 2.96792 19.4915 2.96038 18.9606C2.94719 17.9893 2.92834 17.0149 2.99054 16.0474C3.0697 14.8115 3.6609 13.8164 4.61713 13.036C4.65357 13.0065 4.68813 12.9757 4.72205 12.9475C4.53797 12.7081 4.33253 12.4888 4.18237 12.2375C3.37755 10.8905 3.35179 9.51646 4.21064 8.20274C5.06886 6.89091 6.33357 6.35437 7.8942 6.54976C8.05755 6.57049 8.13734 6.53782 8.2253 6.38892C9.06279 4.96463 10.3168 4.1906 11.966 4.18557C13.6266 4.18054 14.8856 4.95709 15.7306 6.38829C15.8085 6.52023 15.8726 6.57992 16.0379 6.55353C17.623 6.30411 19.1497 7.05866 19.9112 8.45782C20.6676 9.84819 20.4609 11.5489 19.3903 12.7433C19.3363 12.8011 19.2835 12.8582 19.2125 12.9361ZM9.56038 8.44777C9.53776 9.76149 10.5964 10.8647 11.9057 10.8911C13.2691 10.9188 14.3598 9.87772 14.3918 8.51751C14.4232 7.18997 13.357 6.08735 12.0113 6.05468C10.6925 6.02327 9.58363 7.10578 9.56038 8.44777ZM15.1652 11.3655C15.7256 12.0842 16.6963 12.2897 17.4854 11.8744C18.2701 11.4622 18.6559 10.5431 18.3989 9.69929C18.1401 8.84798 17.3007 8.28693 16.4362 8.39877C16.3759 8.4063 16.2917 8.50055 16.2804 8.56463C16.2364 8.82599 16.2345 9.09489 16.1836 9.35437C16.0347 10.1152 15.681 10.7787 15.1652 11.3655ZM8.78572 11.3655C8.08017 10.5556 7.69818 9.62829 7.6787 8.56086C7.67682 8.44275 7.63095 8.40254 7.51347 8.38997C6.64457 8.29699 5.80708 8.85426 5.55137 9.70306C5.29315 10.5594 5.68897 11.4779 6.49127 11.8857C7.28038 12.2865 8.23912 12.076 8.78572 11.3655ZM19.1076 17.9686C19.1076 17.3843 19.1472 16.8252 19.0988 16.2735C19.0077 15.2262 18.4441 14.4993 17.4596 14.1242C17.2152 14.0312 16.9445 14.008 16.6856 13.9527C16.673 13.9753 16.6605 13.9973 16.6485 14.0199C17.2291 15.2871 16.9903 16.6386 17.0601 17.9686C17.748 17.9686 18.4184 17.9686 19.1076 17.9686ZM4.79305 17.9642C5.54509 17.9642 6.21546 17.9642 6.89462 17.9642C6.95745 16.6272 6.7275 15.2771 7.31682 13.9854C7.22383 13.9854 7.17043 13.9835 7.11766 13.9854C6.12436 14.0293 5.13169 14.8109 4.93881 15.8281C4.8075 16.5186 4.8364 17.2398 4.79305 17.9642Z" fill="#121212"/>
<path d="M22.1113 1.85717C21.4931 1.85717 20.8831 1.86345 20.2724 1.85529C19.8169 1.849 19.4343 1.51413 19.3645 1.08314C19.2916 0.634554 19.5316 0.199161 19.9494 0.0452339C20.0644 0.0031397 20.1932 -0.0194777 20.3157 -0.020106C21.2248 -0.0251321 22.1333 -0.0257603 23.0424 -0.0219907C23.6185 -0.0194776 24.0137 0.377591 24.0162 0.956858C24.02 1.8578 24.02 2.75874 24.0162 3.65906C24.0137 4.23204 23.6142 4.64104 23.0694 4.6379C22.5285 4.63539 22.139 4.22324 22.1365 3.64523C22.1333 3.07351 22.1339 2.50178 22.1327 1.93005C22.1333 1.91497 22.1251 1.90115 22.1113 1.85717Z" fill="#121212"/>
<path d="M11.0356 1.12712C11.0356 0.522092 11.2398 0.171516 11.6783 0.0263855C12.2701 -0.169635 12.8815 0.246909 12.9141 0.87204C12.9229 1.03602 12.9204 1.20063 12.9154 1.36461C12.899 1.89612 12.4882 2.29193 11.9629 2.28691C11.4515 2.28188 11.0519 1.88356 11.0362 1.36146C11.0337 1.28356 11.0356 1.20502 11.0356 1.12712Z" fill="#121212"/>
<path d="M22.8566 11.0761C23.4774 11.0755 23.8298 11.2828 23.9718 11.7302C24.1572 12.3151 23.7469 12.9164 23.1337 12.9534C22.9622 12.9635 22.7894 12.961 22.6179 12.9547C22.0989 12.9352 21.7069 12.5275 21.7075 12.0135C21.7081 11.4996 22.1021 11.0956 22.6223 11.0768C22.7002 11.0736 22.7787 11.0761 22.8566 11.0761Z" fill="#121212"/>
</g>
<defs>
<clipPath id="clip0_446_2800">
<rect width="24" height="24" fill="white"/>
</clipPath>
</defs>
</svg>
