<svg width="24" height="24" viewBox="0 0 24 24" fill="none" xmlns="http://www.w3.org/2000/svg">
<g clip-path="url(#clip0_446_2840)">
<path d="M-0.0168457 22.636C-0.0168457 22.4954 -0.0168457 22.3548 -0.0168457 22.2141C-0.00325195 22.1785 0.0154981 22.1438 0.0234668 22.1068C0.214248 21.2213 0.623467 20.4516 1.27315 19.8207C1.53894 19.5624 1.83894 19.3393 2.12347 19.1007C1.14472 17.6284 1.61675 16.0505 2.52894 15.2209C3.56019 14.2824 5.06956 14.1694 6.20065 14.9555C6.76456 15.3474 7.15409 15.872 7.35237 16.531C7.628 17.447 7.45456 18.2977 6.95065 19.0965C7.31065 18.7599 7.63784 18.3952 8.01472 18.0924C8.40003 17.7826 8.83362 17.5332 9.24566 17.258C7.99081 15.6451 8.36909 13.6238 9.55737 12.5063C10.8357 11.3044 12.7172 11.1943 14.1042 12.2462C14.7886 12.7655 15.2307 13.4494 15.4125 14.2918C15.6516 15.3971 15.383 16.388 14.6925 17.2927C15.6136 17.7249 16.3566 18.3507 17.0049 19.1087C16.5942 18.4271 16.3955 17.7085 16.5263 16.9187C16.6589 16.1171 17.0564 15.4763 17.7099 14.9982C18.7819 14.214 20.236 14.2491 21.2775 15.084C21.7997 15.5026 22.1447 16.0393 22.3013 16.6927C22.5122 17.5702 22.3214 18.3737 21.8288 19.1213C21.8925 19.1677 21.9408 19.2062 21.9919 19.2404C22.5389 19.6051 22.9828 20.0682 23.3405 20.6199C23.6592 21.1116 23.8336 21.6573 23.9836 22.2151C23.9836 22.3557 23.9836 22.4963 23.9836 22.6369C23.9142 22.8254 23.8646 23.0241 23.7722 23.1999C23.5303 23.6598 23.1132 23.8834 22.6242 23.9963C15.5307 23.9963 8.43659 23.9963 1.343 23.9963C1.16112 23.9312 0.969873 23.8843 0.799717 23.7966C0.328154 23.5543 0.0998731 23.132 -0.0168457 22.636ZM16.3411 22.112C16.0613 20.3743 14.3105 18.4941 11.8608 18.5635C9.37784 18.6338 7.83144 20.6213 7.63128 22.112C10.5286 22.112 13.425 22.112 16.3411 22.112ZM11.986 13.4035C11.0902 13.4012 10.3421 14.1498 10.3444 15.0455C10.3467 15.9338 11.0775 16.6698 11.9686 16.6815C12.8611 16.6927 13.6149 15.9498 13.6219 15.0512C13.6289 14.1568 12.8827 13.4059 11.986 13.4035ZM5.67987 22.1143C5.79565 21.654 5.90534 21.219 6.0155 20.7845C4.38144 19.7101 2.35456 20.746 2.01003 22.1143C3.23581 22.1143 4.46065 22.1143 5.67987 22.1143ZM21.9797 22.111C21.4458 20.5009 19.298 19.8123 17.9532 20.7882C18.0638 21.2269 18.173 21.6624 18.286 22.111C19.501 22.111 20.7328 22.111 21.9797 22.111ZM4.54362 16.3098C3.95862 16.3023 3.46456 16.7813 3.45331 17.3668C3.44253 17.9513 3.91878 18.4482 4.50425 18.4623C5.09815 18.4768 5.60159 17.9884 5.60581 17.394C5.61097 16.8085 5.12909 16.3173 4.54362 16.3098ZM20.5125 17.3893C20.5144 16.8043 20.0307 16.3149 19.4452 16.3098C18.8602 16.3046 18.368 16.786 18.3596 17.3715C18.3511 17.9654 18.8442 18.4641 19.4386 18.4627C20.0241 18.4609 20.5107 17.9748 20.5125 17.3893Z" fill="#121212"/>
<path d="M-0.0168457 12.7451C-0.0168457 12.2609 -0.0168457 11.7762 -0.0168457 11.292C-0.00231445 11.2095 0.0150293 11.127 0.0258105 11.044C0.082998 10.6109 0.116279 10.174 0.197842 9.74559C0.652529 7.35543 1.74003 5.29059 3.45003 3.56371C5.243 1.7534 7.39784 0.613399 9.91456 0.179805C10.3669 0.101992 10.8244 0.0555859 11.2796 -0.00488281C11.7483 -0.00488281 12.2171 -0.00488281 12.6858 -0.00488281C12.7617 0.00917969 12.8372 0.0269922 12.9136 0.0368359C13.3542 0.0944922 13.7996 0.128242 14.235 0.211211C16.6252 0.66543 18.6891 1.75434 20.4155 3.46527C22.2253 5.25918 23.3649 7.41309 23.798 9.93027C23.8758 10.3812 23.9217 10.8378 23.9822 11.292C23.9822 11.7762 23.9822 12.2609 23.9822 12.7451C23.9522 12.9757 23.9185 13.2054 23.8927 13.4365C23.8332 13.9653 23.3925 14.3375 22.8769 14.2906C22.3566 14.2432 21.9802 13.7782 22.0299 13.2439C22.0388 13.1464 22.0491 13.0493 22.0613 12.9321C21.5372 12.9321 21.0385 12.934 20.5397 12.9317C20.1957 12.9298 19.9167 12.7915 19.7283 12.5004C19.3299 11.8845 19.7555 11.0843 20.5008 11.0618C21.0146 11.0464 21.5288 11.059 22.0374 11.059C22.0472 11.0229 22.0557 11.0084 22.0542 10.9943C21.878 9.2759 21.3024 7.70371 20.3316 6.27449C20.2533 6.15965 20.1792 6.18215 20.0742 6.21262C19.6027 6.34949 19.1302 6.48262 18.6558 6.60918C18.3717 6.68512 18.0835 6.74699 17.7905 6.81684C17.8805 7.36621 17.9921 7.89356 18.0492 8.42652C18.1383 9.25621 18.2077 10.0892 18.2522 10.9226C18.2808 11.4598 17.866 11.8807 17.3541 11.8995C16.8286 11.9187 16.426 11.5193 16.3828 10.9676C16.3139 10.0887 16.2403 9.2098 16.1452 8.33371C16.1011 7.9273 16.0013 7.52699 15.9282 7.13277C14.9072 7.20965 13.9214 7.28371 12.9192 7.35918C12.9192 7.8748 12.9244 8.38152 12.9178 8.88824C12.9122 9.3148 12.6642 9.65746 12.2874 9.78496C11.6775 9.99168 11.0635 9.55949 11.0485 8.90043C11.0367 8.38668 11.0461 7.87199 11.0461 7.35871C10.0463 7.28418 9.06894 7.21105 8.08644 7.13793C8.07143 7.20027 8.0569 7.2523 8.04565 7.30527C7.79019 8.49168 7.6805 9.69496 7.62753 10.9053C7.60269 11.4757 7.18362 11.8761 6.65019 11.8517C6.13081 11.8282 5.71784 11.3942 5.76097 10.8429C5.8444 9.77793 5.96112 8.71574 6.07409 7.65309C6.10315 7.3784 6.17019 7.10746 6.21565 6.85621C5.39862 6.6284 4.61206 6.40574 3.82175 6.19715C3.7655 6.18215 3.65628 6.25527 3.61362 6.31668C3.02628 7.16277 2.57628 8.08059 2.29597 9.06918C2.11409 9.70996 2.00487 10.3709 1.86659 11.0046C1.92894 11.0393 1.93597 11.0464 1.943 11.0464C2.3719 11.0506 2.80175 11.0454 3.23019 11.0595C3.878 11.0811 4.30128 11.6843 4.10347 12.289C3.9769 12.6757 3.6305 12.9237 3.19034 12.9293C2.76425 12.935 2.33815 12.9307 1.89847 12.9307C1.91206 13.0498 1.92237 13.1346 1.93175 13.2195C1.99034 13.7679 1.61628 14.2414 1.08706 14.2892C0.561123 14.3365 0.127998 13.9611 0.0694043 13.4117C0.0469043 13.19 0.0126855 12.9678 -0.0168457 12.7451ZM15.3858 5.30559C14.8266 3.99684 14.2219 2.79918 12.9328 2.08809C12.9328 3.23512 12.9328 4.34043 12.9328 5.47668C13.7452 5.41996 14.5435 5.36418 15.3858 5.30559ZM11.0311 5.47715C11.0311 4.33996 11.0311 3.23137 11.0311 2.08574C9.74253 2.80668 9.1519 4.0034 8.61331 5.30793C9.43972 5.36559 10.2286 5.4209 11.0311 5.47715ZM7.67581 2.84277C6.72237 3.29043 5.86128 3.87309 5.05925 4.62871C5.63675 4.76559 6.17206 4.89262 6.69284 5.0159C7.02565 4.27996 7.34815 3.56746 7.67581 2.84277ZM17.3021 5.01121C17.8163 4.88746 18.3432 4.76137 18.9099 4.62496C18.1003 3.8773 17.2594 3.29465 16.3219 2.86059C16.6486 3.57824 16.9702 4.28324 17.3021 5.01121Z" fill="#121212"/>
</g>
<defs>
<clipPath id="clip0_446_2840">
<rect width="24" height="24" fill="white"/>
</clipPath>
</defs>
</svg>
