<svg width="24" height="24" viewBox="0 0 24 24" fill="none" xmlns="http://www.w3.org/2000/svg">
<g clip-path="url(#clip0_446_2831)">
<path d="M0.050293 6.20438C0.050293 5.95547 0.050293 5.7061 0.050293 5.45719C0.147324 5.34 0.235449 5.21391 0.342793 5.10657C1.88779 3.55829 3.43607 2.01376 4.98154 0.465943C5.21545 0.232037 5.48779 0.126099 5.82061 0.133599C7.46826 0.169693 9.01889 0.566256 10.4584 1.37297C10.6192 1.46297 10.7387 1.46579 10.9 1.37532C12.3179 0.581256 13.8442 0.183287 15.4675 0.133599C15.8144 0.122818 16.0984 0.222662 16.3661 0.442506C17.755 1.58391 19.1509 2.71641 20.544 3.85219C21.5331 4.65844 22.5217 5.46563 23.5122 6.27094C23.8131 6.51563 23.9673 6.82079 23.8975 7.21172C23.7779 7.88204 22.9642 8.24954 22.2934 7.69594C20.0908 5.87813 17.8684 4.08422 15.6611 2.27204C15.437 2.08829 15.2331 2.00626 14.9317 2.03626C13.472 2.18251 12.145 2.67376 10.9689 3.54001C9.80123 4.40063 8.89654 5.53501 7.92811 6.59719C7.43311 7.14001 7.77904 7.9861 8.49717 8.10094C8.84029 8.15579 9.11545 8.01657 9.35732 7.77938C9.75717 7.38751 10.135 6.96422 10.5756 6.62391C12.5125 5.12813 15.0123 5.20829 16.8826 6.79922C18.9161 8.52844 20.9472 10.2605 22.982 11.9883C24.3503 13.1503 24.1947 15.3183 22.66 16.2558C22.3797 16.4269 22.0581 16.5314 21.7361 16.6753C21.7333 16.7395 21.73 16.8324 21.7248 16.9252C21.6606 18.1163 20.679 19.1822 19.4936 19.3256C19.2606 19.3538 19.1997 19.4611 19.1636 19.6697C18.9644 20.8219 18.0161 21.6727 16.8503 21.7477C16.6919 21.758 16.644 21.8119 16.6154 21.9586C16.5297 22.402 16.3229 22.7873 16.0314 23.1342C15.6554 23.5814 15.1619 23.8228 14.6228 23.9963C14.2337 23.9963 13.8442 23.9963 13.4551 23.9963C12.9803 23.8486 12.5354 23.6438 12.1651 23.2847C11.7976 23.6541 11.3504 23.8411 10.8864 23.9963C10.4814 23.9963 10.0769 23.9963 9.67186 23.9963C9.65451 23.9827 9.63904 23.9616 9.61936 23.9559C8.58951 23.662 7.93842 22.9936 7.66607 21.9623C7.62295 21.7988 7.52545 21.8133 7.40826 21.81C6.13936 21.7758 5.13998 20.9545 4.86623 19.7138C4.83576 19.5764 4.78748 19.5239 4.64076 19.5145C3.27951 19.4306 2.23982 18.3694 2.1967 17.0166C2.19154 16.852 2.13951 16.7911 1.98529 16.7527C1.37404 16.6003 0.868731 16.2689 0.519512 15.7472C0.324512 15.4561 0.204512 15.1149 0.0507618 14.7966C0.0507618 14.392 0.0507618 13.987 0.0507618 13.5825C0.214824 13.1109 0.416387 12.6614 0.785293 12.3075C1.24561 11.8655 1.69279 11.4094 2.16623 10.9823C2.94857 10.2764 3.86264 10.0763 4.85404 10.4241C5.83748 10.7691 6.41217 11.4933 6.58982 12.5222C6.61279 12.6544 6.65592 12.7205 6.8017 12.7449C7.89154 12.9291 8.64248 13.5525 8.93967 14.6063C9.05639 15.0202 9.22889 15.1533 9.61373 15.2695C10.8517 15.6441 11.5394 16.6739 11.4873 17.9756C11.4812 18.1266 11.5197 18.1955 11.6636 18.2433C11.8389 18.3019 12.0128 18.3778 12.1708 18.4739C13.2737 19.1452 13.742 20.3794 13.3778 21.6192C13.3567 21.6914 13.3473 21.7964 13.3844 21.8517C13.5461 22.0959 13.9258 22.2239 14.215 22.1522C14.8197 22.0017 14.9926 21.3492 14.5665 20.8242C14.2051 20.3789 14.2098 19.8619 14.5783 19.5009C14.9462 19.1409 15.4698 19.147 15.9053 19.5117C16.03 19.6158 16.1542 19.7278 16.2967 19.8014C16.5554 19.9355 16.8245 19.9327 17.0692 19.7574C17.2998 19.5928 17.4001 19.3481 17.3401 19.0828C17.2923 18.8723 17.177 18.6731 17.0673 18.4823C17.0031 18.3708 16.8836 18.293 16.8029 18.1889C16.5128 17.8144 16.5517 17.2838 16.8873 16.9561C17.214 16.6374 17.739 16.605 18.1037 16.8905C18.2378 16.9955 18.3545 17.123 18.4787 17.2402C18.8369 17.5786 19.3042 17.5964 19.6281 17.2833C19.9398 16.9823 19.9464 16.5145 19.6309 16.1503C19.4734 15.9684 19.285 15.8133 19.1294 15.63C18.8162 15.2616 18.8462 14.7192 19.1837 14.3794C19.5222 14.0391 20.0603 14.0142 20.4353 14.3245C20.5248 14.3986 20.6036 14.4863 20.6903 14.5641C21.0442 14.8823 21.5383 14.8725 21.8392 14.543C22.1514 14.2008 22.1144 13.7063 21.7398 13.3866C19.7036 11.6494 17.6711 9.90797 15.625 8.18251C14.327 7.08797 12.6147 7.17516 11.4067 8.36719C11.102 8.66766 10.809 8.98126 10.4917 9.26766C9.28701 10.3547 7.40639 10.1766 6.41732 8.89079C5.5656 7.7836 5.66076 6.27516 6.67045 5.18063C7.39326 4.39735 8.1367 3.63329 8.87029 2.85985C8.90967 2.8186 8.94295 2.77126 8.98654 2.71782C8.16436 2.35032 7.32811 2.1361 6.45529 2.03626C6.16326 2.00297 5.98748 2.09297 5.79295 2.28985C4.4467 3.65063 3.08873 5.00016 1.73404 6.35251C1.65717 6.42938 1.57889 6.50672 1.49264 6.57188C1.07451 6.88688 0.501699 6.80016 0.188105 6.37969C0.143105 6.3211 0.0962305 6.26344 0.050293 6.20438ZM4.8217 17.7099C5.01529 17.6081 5.24076 17.5416 5.39639 17.3986C5.92795 16.9092 6.43889 16.3974 6.94889 15.885C7.2817 15.5503 7.28357 15.1205 6.97373 14.8078C6.65686 14.4877 6.18436 14.4905 5.84826 14.8148C5.53514 15.1172 5.22107 15.4186 4.90936 15.7224C4.6867 15.9394 4.45748 16.1508 4.24982 16.3814C4.02576 16.6298 3.99342 16.928 4.12748 17.2299C4.25264 17.5092 4.47857 17.6564 4.8217 17.7099ZM7.47201 19.9777C7.62623 19.9134 7.8142 19.8853 7.92857 19.7784C8.45029 19.2909 8.96498 18.7941 9.45436 18.2742C9.73561 17.9752 9.68029 17.5041 9.38686 17.2214C9.09811 16.9434 8.66404 16.9247 8.34436 17.1759C8.33826 17.1806 8.3317 17.1848 8.32607 17.1905C7.84045 17.6714 7.34639 18.1444 6.87248 18.6366C6.63529 18.8831 6.60435 19.1963 6.74685 19.5042C6.88279 19.7972 7.1317 19.9397 7.47201 19.9777ZM1.86061 14.0869C1.89201 14.5116 2.02701 14.7605 2.32279 14.9002C2.63592 15.0478 2.93873 15.0089 3.18904 14.7764C3.62779 14.3691 4.05107 13.9448 4.47904 13.5263C4.83201 13.1808 4.85873 12.7125 4.54795 12.3839C4.23857 12.0567 3.75811 12.0469 3.40139 12.3792C2.96873 12.7824 2.53842 13.1883 2.13061 13.6158C1.99045 13.763 1.92061 13.9781 1.86061 14.0869ZM10.3567 22.1798C10.434 22.1545 10.5986 22.1475 10.6909 22.0622C10.9909 21.7842 11.3026 21.5048 11.537 21.1744C11.7667 20.8505 11.6373 20.4131 11.3214 20.153C11.0144 19.8999 10.5981 19.8717 10.3136 20.1178C10.0675 20.3306 9.83311 20.5627 9.62264 20.8106C9.39482 21.0792 9.38686 21.397 9.54295 21.7078C9.69576 22.012 9.95685 22.1602 10.3567 22.1798Z" fill="#121212"/>
</g>
<defs>
<clipPath id="clip0_446_2831">
<rect width="24" height="24" fill="white"/>
</clipPath>
</defs>
</svg>
